<mxfile host="app.diagrams.net" modified="2024-04-30T13:59:31.993Z" agent="Mozilla/5.0 (Windows NT 10.0; Win64; x64) AppleWebKit/537.36 (KHTML, like Gecko) Chrome/124.0.0.0 Safari/537.36" etag="yI8l0vMgJU_cltxk81A3" version="23.1.8" type="device">
  <diagram name="Page-1" id="HQd-de8oFNgjCHat88Rk">
    <mxGraphModel dx="4510" dy="1884" grid="1" gridSize="10" guides="1" tooltips="1" connect="1" arrows="1" fold="1" page="1" pageScale="1" pageWidth="850" pageHeight="1100" math="0" shadow="0">
      <root>
        <mxCell id="0" />
        <mxCell id="1" parent="0" />
        <mxCell id="zXZC7gDi-qFupmcMp6eT-4" style="edgeStyle=orthogonalEdgeStyle;rounded=0;orthogonalLoop=1;jettySize=auto;html=1;entryX=0.5;entryY=0;entryDx=0;entryDy=0;" edge="1" parent="1" source="zXZC7gDi-qFupmcMp6eT-1" target="zXZC7gDi-qFupmcMp6eT-3">
          <mxGeometry relative="1" as="geometry" />
        </mxCell>
        <mxCell id="zXZC7gDi-qFupmcMp6eT-1" value="User connects to website" style="strokeWidth=2;html=1;shape=mxgraph.flowchart.start_1;whiteSpace=wrap;" vertex="1" parent="1">
          <mxGeometry x="-158.75" y="10" width="115" height="60" as="geometry" />
        </mxCell>
        <mxCell id="zXZC7gDi-qFupmcMp6eT-3" value="Displays Login/Register Page" style="rounded=1;whiteSpace=wrap;html=1;absoluteArcSize=1;arcSize=14;strokeWidth=2;" vertex="1" parent="1">
          <mxGeometry x="-178.75" y="100" width="155" height="60" as="geometry" />
        </mxCell>
        <mxCell id="zXZC7gDi-qFupmcMp6eT-9" style="edgeStyle=orthogonalEdgeStyle;rounded=0;orthogonalLoop=1;jettySize=auto;html=1;entryX=0;entryY=0.5;entryDx=0;entryDy=0;entryPerimeter=0;" edge="1" parent="1" source="zXZC7gDi-qFupmcMp6eT-5" target="zXZC7gDi-qFupmcMp6eT-17">
          <mxGeometry relative="1" as="geometry">
            <mxPoint x="16.25" y="240" as="targetPoint" />
            <Array as="points" />
          </mxGeometry>
        </mxCell>
        <mxCell id="zXZC7gDi-qFupmcMp6eT-15" value="NO" style="edgeLabel;html=1;align=center;verticalAlign=middle;resizable=0;points=[];" vertex="1" connectable="0" parent="zXZC7gDi-qFupmcMp6eT-9">
          <mxGeometry x="-0.3862" y="-1" relative="1" as="geometry">
            <mxPoint as="offset" />
          </mxGeometry>
        </mxCell>
        <mxCell id="zXZC7gDi-qFupmcMp6eT-13" style="edgeStyle=orthogonalEdgeStyle;rounded=0;orthogonalLoop=1;jettySize=auto;html=1;entryX=0.5;entryY=0;entryDx=0;entryDy=0;" edge="1" parent="1" source="zXZC7gDi-qFupmcMp6eT-5" target="zXZC7gDi-qFupmcMp6eT-12">
          <mxGeometry relative="1" as="geometry" />
        </mxCell>
        <mxCell id="zXZC7gDi-qFupmcMp6eT-14" value="YES" style="edgeLabel;html=1;align=center;verticalAlign=middle;resizable=0;points=[];" vertex="1" connectable="0" parent="zXZC7gDi-qFupmcMp6eT-13">
          <mxGeometry x="-0.169" y="1" relative="1" as="geometry">
            <mxPoint as="offset" />
          </mxGeometry>
        </mxCell>
        <mxCell id="zXZC7gDi-qFupmcMp6eT-5" value="Does the user have an existing account ?" style="strokeWidth=2;html=1;shape=mxgraph.flowchart.decision;whiteSpace=wrap;" vertex="1" parent="1">
          <mxGeometry x="-183.75" y="190" width="165" height="100" as="geometry" />
        </mxCell>
        <mxCell id="zXZC7gDi-qFupmcMp6eT-6" style="edgeStyle=orthogonalEdgeStyle;rounded=0;orthogonalLoop=1;jettySize=auto;html=1;entryX=0.5;entryY=0;entryDx=0;entryDy=0;entryPerimeter=0;" edge="1" parent="1" source="zXZC7gDi-qFupmcMp6eT-3" target="zXZC7gDi-qFupmcMp6eT-5">
          <mxGeometry relative="1" as="geometry" />
        </mxCell>
        <mxCell id="zXZC7gDi-qFupmcMp6eT-11" style="edgeStyle=orthogonalEdgeStyle;rounded=0;orthogonalLoop=1;jettySize=auto;html=1;" edge="1" parent="1" source="zXZC7gDi-qFupmcMp6eT-8" target="zXZC7gDi-qFupmcMp6eT-10">
          <mxGeometry relative="1" as="geometry" />
        </mxCell>
        <mxCell id="zXZC7gDi-qFupmcMp6eT-8" value="User creates an account using an email, their first and second names and a password" style="rounded=1;whiteSpace=wrap;html=1;absoluteArcSize=1;arcSize=14;strokeWidth=2;" vertex="1" parent="1">
          <mxGeometry x="256.25" y="210" width="155" height="60" as="geometry" />
        </mxCell>
        <mxCell id="zXZC7gDi-qFupmcMp6eT-32" style="edgeStyle=orthogonalEdgeStyle;rounded=0;orthogonalLoop=1;jettySize=auto;html=1;entryX=0.984;entryY=0.5;entryDx=0;entryDy=0;entryPerimeter=0;" edge="1" parent="1" source="zXZC7gDi-qFupmcMp6eT-10" target="zXZC7gDi-qFupmcMp6eT-16">
          <mxGeometry relative="1" as="geometry">
            <mxPoint x="513.75" y="460" as="targetPoint" />
            <Array as="points">
              <mxPoint x="514.25" y="420" />
              <mxPoint x="514.25" y="420" />
              <mxPoint x="514.25" y="470" />
            </Array>
          </mxGeometry>
        </mxCell>
        <mxCell id="zXZC7gDi-qFupmcMp6eT-10" value="User&#39;s account is verified and is saved to the site&#39;s database" style="rounded=1;whiteSpace=wrap;html=1;absoluteArcSize=1;arcSize=14;strokeWidth=2;" vertex="1" parent="1">
          <mxGeometry x="436.25" y="210" width="155" height="60" as="geometry" />
        </mxCell>
        <mxCell id="zXZC7gDi-qFupmcMp6eT-29" value="" style="edgeStyle=orthogonalEdgeStyle;rounded=0;orthogonalLoop=1;jettySize=auto;html=1;" edge="1" parent="1" source="zXZC7gDi-qFupmcMp6eT-12" target="zXZC7gDi-qFupmcMp6eT-27">
          <mxGeometry relative="1" as="geometry" />
        </mxCell>
        <mxCell id="zXZC7gDi-qFupmcMp6eT-12" value="User logs in with their existing account which has been saved to the database" style="rounded=1;whiteSpace=wrap;html=1;absoluteArcSize=1;arcSize=14;strokeWidth=2;" vertex="1" parent="1">
          <mxGeometry x="-178.75" y="330" width="155" height="60" as="geometry" />
        </mxCell>
        <mxCell id="zXZC7gDi-qFupmcMp6eT-26" value="" style="edgeStyle=orthogonalEdgeStyle;rounded=0;orthogonalLoop=1;jettySize=auto;html=1;" edge="1" parent="1" source="zXZC7gDi-qFupmcMp6eT-16" target="zXZC7gDi-qFupmcMp6eT-25">
          <mxGeometry relative="1" as="geometry" />
        </mxCell>
        <mxCell id="zXZC7gDi-qFupmcMp6eT-16" value="Displays Homepage containing various quizzes" style="rounded=1;whiteSpace=wrap;html=1;absoluteArcSize=1;arcSize=14;strokeWidth=2;" vertex="1" parent="1">
          <mxGeometry x="43.75" y="440" width="155" height="60" as="geometry" />
        </mxCell>
        <mxCell id="zXZC7gDi-qFupmcMp6eT-19" style="edgeStyle=orthogonalEdgeStyle;rounded=0;orthogonalLoop=1;jettySize=auto;html=1;entryX=0;entryY=0.5;entryDx=0;entryDy=0;" edge="1" parent="1" source="zXZC7gDi-qFupmcMp6eT-17" target="zXZC7gDi-qFupmcMp6eT-8">
          <mxGeometry relative="1" as="geometry" />
        </mxCell>
        <mxCell id="zXZC7gDi-qFupmcMp6eT-21" value="YES" style="edgeLabel;html=1;align=center;verticalAlign=middle;resizable=0;points=[];" vertex="1" connectable="0" parent="zXZC7gDi-qFupmcMp6eT-19">
          <mxGeometry x="0.4119" y="-2" relative="1" as="geometry">
            <mxPoint x="-15" y="-2" as="offset" />
          </mxGeometry>
        </mxCell>
        <mxCell id="zXZC7gDi-qFupmcMp6eT-28" value="" style="edgeStyle=orthogonalEdgeStyle;rounded=0;orthogonalLoop=1;jettySize=auto;html=1;" edge="1" parent="1" source="zXZC7gDi-qFupmcMp6eT-17" target="zXZC7gDi-qFupmcMp6eT-27">
          <mxGeometry relative="1" as="geometry" />
        </mxCell>
        <mxCell id="zXZC7gDi-qFupmcMp6eT-17" value="Does the user wish to create an account" style="strokeWidth=2;html=1;shape=mxgraph.flowchart.decision;whiteSpace=wrap;" vertex="1" parent="1">
          <mxGeometry x="36.25" y="185" width="170" height="110" as="geometry" />
        </mxCell>
        <mxCell id="zXZC7gDi-qFupmcMp6eT-34" value="" style="edgeStyle=orthogonalEdgeStyle;rounded=0;orthogonalLoop=1;jettySize=auto;html=1;" edge="1" parent="1" source="zXZC7gDi-qFupmcMp6eT-25" target="zXZC7gDi-qFupmcMp6eT-33">
          <mxGeometry relative="1" as="geometry" />
        </mxCell>
        <mxCell id="zXZC7gDi-qFupmcMp6eT-48" value="YES" style="edgeLabel;html=1;align=center;verticalAlign=middle;resizable=0;points=[];" vertex="1" connectable="0" parent="zXZC7gDi-qFupmcMp6eT-34">
          <mxGeometry x="-0.693" relative="1" as="geometry">
            <mxPoint as="offset" />
          </mxGeometry>
        </mxCell>
        <mxCell id="zXZC7gDi-qFupmcMp6eT-52" value="" style="edgeStyle=orthogonalEdgeStyle;rounded=0;orthogonalLoop=1;jettySize=auto;html=1;" edge="1" parent="1" source="zXZC7gDi-qFupmcMp6eT-25" target="zXZC7gDi-qFupmcMp6eT-51">
          <mxGeometry relative="1" as="geometry" />
        </mxCell>
        <mxCell id="zXZC7gDi-qFupmcMp6eT-101" value="NO" style="edgeLabel;html=1;align=center;verticalAlign=middle;resizable=0;points=[];" vertex="1" connectable="0" parent="zXZC7gDi-qFupmcMp6eT-52">
          <mxGeometry x="0.0085" relative="1" as="geometry">
            <mxPoint as="offset" />
          </mxGeometry>
        </mxCell>
        <mxCell id="zXZC7gDi-qFupmcMp6eT-25" value="Does the user wish to play a quiz" style="strokeWidth=2;html=1;shape=mxgraph.flowchart.decision;whiteSpace=wrap;" vertex="1" parent="1">
          <mxGeometry x="51.25" y="530" width="140" height="110" as="geometry" />
        </mxCell>
        <mxCell id="zXZC7gDi-qFupmcMp6eT-30" value="" style="edgeStyle=orthogonalEdgeStyle;rounded=0;orthogonalLoop=1;jettySize=auto;html=1;" edge="1" parent="1" source="zXZC7gDi-qFupmcMp6eT-27" target="zXZC7gDi-qFupmcMp6eT-16">
          <mxGeometry relative="1" as="geometry" />
        </mxCell>
        <mxCell id="zXZC7gDi-qFupmcMp6eT-27" value="The user connects to site as a guest" style="rounded=1;whiteSpace=wrap;html=1;absoluteArcSize=1;arcSize=14;strokeWidth=2;" vertex="1" parent="1">
          <mxGeometry x="43.75" y="330" width="155" height="60" as="geometry" />
        </mxCell>
        <mxCell id="zXZC7gDi-qFupmcMp6eT-36" value="" style="edgeStyle=orthogonalEdgeStyle;rounded=0;orthogonalLoop=1;jettySize=auto;html=1;" edge="1" parent="1" source="zXZC7gDi-qFupmcMp6eT-33" target="zXZC7gDi-qFupmcMp6eT-35">
          <mxGeometry relative="1" as="geometry" />
        </mxCell>
        <mxCell id="zXZC7gDi-qFupmcMp6eT-45" style="edgeStyle=orthogonalEdgeStyle;rounded=0;orthogonalLoop=1;jettySize=auto;html=1;entryX=1;entryY=0.5;entryDx=0;entryDy=0;exitX=1;exitY=0.5;exitDx=0;exitDy=0;exitPerimeter=0;" edge="1" parent="1" source="zXZC7gDi-qFupmcMp6eT-35" target="zXZC7gDi-qFupmcMp6eT-38">
          <mxGeometry relative="1" as="geometry">
            <mxPoint x="286.25" y="1030" as="targetPoint" />
            <Array as="points">
              <mxPoint x="236.25" y="815" />
              <mxPoint x="236.25" y="1020" />
            </Array>
          </mxGeometry>
        </mxCell>
        <mxCell id="zXZC7gDi-qFupmcMp6eT-46" value="NO" style="edgeLabel;html=1;align=center;verticalAlign=middle;resizable=0;points=[];" vertex="1" connectable="0" parent="zXZC7gDi-qFupmcMp6eT-45">
          <mxGeometry x="-0.157" relative="1" as="geometry">
            <mxPoint y="30" as="offset" />
          </mxGeometry>
        </mxCell>
        <mxCell id="zXZC7gDi-qFupmcMp6eT-33" value="User chooses a quiz of his liking and the quiz begins" style="rounded=1;whiteSpace=wrap;html=1;absoluteArcSize=1;arcSize=14;strokeWidth=2;" vertex="1" parent="1">
          <mxGeometry x="43.75" y="670" width="155" height="60" as="geometry" />
        </mxCell>
        <mxCell id="zXZC7gDi-qFupmcMp6eT-42" style="edgeStyle=orthogonalEdgeStyle;rounded=0;orthogonalLoop=1;jettySize=auto;html=1;entryX=0.5;entryY=0;entryDx=0;entryDy=0;" edge="1" parent="1" source="zXZC7gDi-qFupmcMp6eT-35" target="zXZC7gDi-qFupmcMp6eT-37">
          <mxGeometry relative="1" as="geometry" />
        </mxCell>
        <mxCell id="zXZC7gDi-qFupmcMp6eT-47" value="YES" style="edgeLabel;html=1;align=center;verticalAlign=middle;resizable=0;points=[];" vertex="1" connectable="0" parent="zXZC7gDi-qFupmcMp6eT-42">
          <mxGeometry x="-0.7425" y="-2" relative="1" as="geometry">
            <mxPoint x="2" y="4" as="offset" />
          </mxGeometry>
        </mxCell>
        <mxCell id="zXZC7gDi-qFupmcMp6eT-35" value="Is the user connected with an account ?" style="strokeWidth=2;html=1;shape=mxgraph.flowchart.decision;whiteSpace=wrap;" vertex="1" parent="1">
          <mxGeometry x="36.25" y="760" width="170" height="110" as="geometry" />
        </mxCell>
        <mxCell id="zXZC7gDi-qFupmcMp6eT-43" value="" style="edgeStyle=orthogonalEdgeStyle;rounded=0;orthogonalLoop=1;jettySize=auto;html=1;" edge="1" parent="1" source="zXZC7gDi-qFupmcMp6eT-37" target="zXZC7gDi-qFupmcMp6eT-38">
          <mxGeometry relative="1" as="geometry" />
        </mxCell>
        <mxCell id="zXZC7gDi-qFupmcMp6eT-37" value="User&#39;s score is saved to his profile on the database" style="rounded=1;whiteSpace=wrap;html=1;absoluteArcSize=1;arcSize=14;strokeWidth=2;" vertex="1" parent="1">
          <mxGeometry x="43.75" y="900" width="155" height="60" as="geometry" />
        </mxCell>
        <mxCell id="zXZC7gDi-qFupmcMp6eT-44" value="" style="edgeStyle=orthogonalEdgeStyle;rounded=0;orthogonalLoop=1;jettySize=auto;html=1;" edge="1" parent="1" source="zXZC7gDi-qFupmcMp6eT-38" target="zXZC7gDi-qFupmcMp6eT-39">
          <mxGeometry relative="1" as="geometry" />
        </mxCell>
        <mxCell id="zXZC7gDi-qFupmcMp6eT-38" value="User is added to the list of the quiz&#39; players on the database" style="rounded=1;whiteSpace=wrap;html=1;absoluteArcSize=1;arcSize=14;strokeWidth=2;" vertex="1" parent="1">
          <mxGeometry x="43.75" y="990" width="155" height="60" as="geometry" />
        </mxCell>
        <mxCell id="zXZC7gDi-qFupmcMp6eT-39" value="End" style="strokeWidth=2;html=1;shape=mxgraph.flowchart.terminator;whiteSpace=wrap;" vertex="1" parent="1">
          <mxGeometry x="71.25" y="1090" width="100" height="60" as="geometry" />
        </mxCell>
        <mxCell id="zXZC7gDi-qFupmcMp6eT-54" value="" style="edgeStyle=orthogonalEdgeStyle;rounded=0;orthogonalLoop=1;jettySize=auto;html=1;" edge="1" parent="1" source="zXZC7gDi-qFupmcMp6eT-51" target="zXZC7gDi-qFupmcMp6eT-53">
          <mxGeometry relative="1" as="geometry" />
        </mxCell>
        <mxCell id="zXZC7gDi-qFupmcMp6eT-57" value="NO" style="edgeLabel;html=1;align=center;verticalAlign=middle;resizable=0;points=[];" vertex="1" connectable="0" parent="zXZC7gDi-qFupmcMp6eT-54">
          <mxGeometry x="-0.6398" relative="1" as="geometry">
            <mxPoint as="offset" />
          </mxGeometry>
        </mxCell>
        <mxCell id="zXZC7gDi-qFupmcMp6eT-59" value="" style="edgeStyle=orthogonalEdgeStyle;rounded=0;orthogonalLoop=1;jettySize=auto;html=1;" edge="1" parent="1" source="zXZC7gDi-qFupmcMp6eT-51" target="zXZC7gDi-qFupmcMp6eT-58">
          <mxGeometry relative="1" as="geometry" />
        </mxCell>
        <mxCell id="zXZC7gDi-qFupmcMp6eT-63" value="YES" style="edgeLabel;html=1;align=center;verticalAlign=middle;resizable=0;points=[];" vertex="1" connectable="0" parent="zXZC7gDi-qFupmcMp6eT-59">
          <mxGeometry x="-0.225" relative="1" as="geometry">
            <mxPoint as="offset" />
          </mxGeometry>
        </mxCell>
        <mxCell id="zXZC7gDi-qFupmcMp6eT-51" value="Does the user want to create a quiz" style="strokeWidth=2;html=1;shape=mxgraph.flowchart.decision;whiteSpace=wrap;" vertex="1" parent="1">
          <mxGeometry x="-186.25" y="530" width="152.5" height="110" as="geometry" />
        </mxCell>
        <mxCell id="zXZC7gDi-qFupmcMp6eT-56" value="" style="edgeStyle=orthogonalEdgeStyle;rounded=0;orthogonalLoop=1;jettySize=auto;html=1;" edge="1" parent="1" source="zXZC7gDi-qFupmcMp6eT-53" target="zXZC7gDi-qFupmcMp6eT-55">
          <mxGeometry relative="1" as="geometry" />
        </mxCell>
        <mxCell id="zXZC7gDi-qFupmcMp6eT-53" value="User logs off and the session on the webstie ends" style="rounded=1;whiteSpace=wrap;html=1;absoluteArcSize=1;arcSize=14;strokeWidth=2;" vertex="1" parent="1">
          <mxGeometry x="-187.5" y="670" width="155" height="60" as="geometry" />
        </mxCell>
        <mxCell id="zXZC7gDi-qFupmcMp6eT-55" value="End" style="strokeWidth=2;html=1;shape=mxgraph.flowchart.terminator;whiteSpace=wrap;" vertex="1" parent="1">
          <mxGeometry x="-160" y="760" width="100" height="60" as="geometry" />
        </mxCell>
        <mxCell id="zXZC7gDi-qFupmcMp6eT-61" value="" style="edgeStyle=orthogonalEdgeStyle;rounded=0;orthogonalLoop=1;jettySize=auto;html=1;" edge="1" parent="1" source="zXZC7gDi-qFupmcMp6eT-58" target="zXZC7gDi-qFupmcMp6eT-60">
          <mxGeometry relative="1" as="geometry" />
        </mxCell>
        <mxCell id="zXZC7gDi-qFupmcMp6eT-64" value="NO" style="edgeLabel;html=1;align=center;verticalAlign=middle;resizable=0;points=[];" vertex="1" connectable="0" parent="zXZC7gDi-qFupmcMp6eT-61">
          <mxGeometry x="-0.1952" y="1" relative="1" as="geometry">
            <mxPoint as="offset" />
          </mxGeometry>
        </mxCell>
        <mxCell id="zXZC7gDi-qFupmcMp6eT-66" value="" style="edgeStyle=orthogonalEdgeStyle;rounded=0;orthogonalLoop=1;jettySize=auto;html=1;" edge="1" parent="1" source="zXZC7gDi-qFupmcMp6eT-58" target="zXZC7gDi-qFupmcMp6eT-65">
          <mxGeometry relative="1" as="geometry" />
        </mxCell>
        <mxCell id="zXZC7gDi-qFupmcMp6eT-67" value="YES" style="edgeLabel;html=1;align=center;verticalAlign=middle;resizable=0;points=[];" vertex="1" connectable="0" parent="zXZC7gDi-qFupmcMp6eT-66">
          <mxGeometry x="-0.1126" y="-2" relative="1" as="geometry">
            <mxPoint as="offset" />
          </mxGeometry>
        </mxCell>
        <mxCell id="zXZC7gDi-qFupmcMp6eT-58" value="Is the user connected with an account ?" style="strokeWidth=2;html=1;shape=mxgraph.flowchart.decision;whiteSpace=wrap;" vertex="1" parent="1">
          <mxGeometry x="-403.75" y="530" width="170" height="110" as="geometry" />
        </mxCell>
        <mxCell id="zXZC7gDi-qFupmcMp6eT-62" style="edgeStyle=orthogonalEdgeStyle;rounded=0;orthogonalLoop=1;jettySize=auto;html=1;entryX=0;entryY=0.5;entryDx=0;entryDy=0;exitX=0.5;exitY=0;exitDx=0;exitDy=0;entryPerimeter=0;" edge="1" parent="1" source="zXZC7gDi-qFupmcMp6eT-60" target="zXZC7gDi-qFupmcMp6eT-5">
          <mxGeometry relative="1" as="geometry">
            <mxPoint x="-318.7500000000002" y="360" as="targetPoint" />
          </mxGeometry>
        </mxCell>
        <mxCell id="zXZC7gDi-qFupmcMp6eT-60" value="User can&#39;t create an account as they are connected as a guest" style="rounded=1;whiteSpace=wrap;html=1;absoluteArcSize=1;arcSize=14;strokeWidth=2;" vertex="1" parent="1">
          <mxGeometry x="-396.25" y="430" width="155" height="60" as="geometry" />
        </mxCell>
        <mxCell id="zXZC7gDi-qFupmcMp6eT-95" value="" style="edgeStyle=orthogonalEdgeStyle;rounded=0;orthogonalLoop=1;jettySize=auto;html=1;" edge="1" parent="1" source="zXZC7gDi-qFupmcMp6eT-65" target="zXZC7gDi-qFupmcMp6eT-94">
          <mxGeometry relative="1" as="geometry" />
        </mxCell>
        <mxCell id="zXZC7gDi-qFupmcMp6eT-65" value="User clicks on button &#39;create quiz&#39; which can be found on the navbar" style="rounded=1;whiteSpace=wrap;html=1;absoluteArcSize=1;arcSize=14;strokeWidth=2;" vertex="1" parent="1">
          <mxGeometry x="-612.5" y="555" width="155" height="60" as="geometry" />
        </mxCell>
        <mxCell id="zXZC7gDi-qFupmcMp6eT-75" value="" style="edgeStyle=orthogonalEdgeStyle;rounded=0;orthogonalLoop=1;jettySize=auto;html=1;" edge="1" parent="1" source="zXZC7gDi-qFupmcMp6eT-70" target="zXZC7gDi-qFupmcMp6eT-73">
          <mxGeometry relative="1" as="geometry" />
        </mxCell>
        <mxCell id="zXZC7gDi-qFupmcMp6eT-70" value="User selects a theme and title for his quiz" style="rounded=1;whiteSpace=wrap;html=1;absoluteArcSize=1;arcSize=14;strokeWidth=2;" vertex="1" parent="1">
          <mxGeometry x="-612.5" y="785" width="155" height="60" as="geometry" />
        </mxCell>
        <mxCell id="zXZC7gDi-qFupmcMp6eT-81" value="" style="edgeStyle=orthogonalEdgeStyle;rounded=0;orthogonalLoop=1;jettySize=auto;html=1;" edge="1" parent="1" source="zXZC7gDi-qFupmcMp6eT-73" target="zXZC7gDi-qFupmcMp6eT-77">
          <mxGeometry relative="1" as="geometry" />
        </mxCell>
        <mxCell id="zXZC7gDi-qFupmcMp6eT-73" value="User creates multiple choice question(s) with one or multiple correct answers" style="rounded=1;whiteSpace=wrap;html=1;absoluteArcSize=1;arcSize=14;strokeWidth=2;" vertex="1" parent="1">
          <mxGeometry x="-612.5" y="895" width="155" height="60" as="geometry" />
        </mxCell>
        <mxCell id="zXZC7gDi-qFupmcMp6eT-82" value="" style="edgeStyle=orthogonalEdgeStyle;rounded=0;orthogonalLoop=1;jettySize=auto;html=1;" edge="1" parent="1" source="zXZC7gDi-qFupmcMp6eT-77" target="zXZC7gDi-qFupmcMp6eT-78">
          <mxGeometry relative="1" as="geometry" />
        </mxCell>
        <mxCell id="zXZC7gDi-qFupmcMp6eT-77" value="User clicks on finish quiz" style="rounded=1;whiteSpace=wrap;html=1;absoluteArcSize=1;arcSize=14;strokeWidth=2;" vertex="1" parent="1">
          <mxGeometry x="-411.88" y="895" width="155" height="60" as="geometry" />
        </mxCell>
        <mxCell id="zXZC7gDi-qFupmcMp6eT-84" value="" style="edgeStyle=orthogonalEdgeStyle;rounded=0;orthogonalLoop=1;jettySize=auto;html=1;" edge="1" parent="1" source="zXZC7gDi-qFupmcMp6eT-78">
          <mxGeometry relative="1" as="geometry">
            <mxPoint x="-335" y="1130" as="targetPoint" />
          </mxGeometry>
        </mxCell>
        <mxCell id="zXZC7gDi-qFupmcMp6eT-89" value="" style="edgeStyle=orthogonalEdgeStyle;rounded=0;orthogonalLoop=1;jettySize=auto;html=1;" edge="1" parent="1" source="zXZC7gDi-qFupmcMp6eT-78" target="zXZC7gDi-qFupmcMp6eT-88">
          <mxGeometry relative="1" as="geometry" />
        </mxCell>
        <mxCell id="zXZC7gDi-qFupmcMp6eT-108" value="NO" style="edgeLabel;html=1;align=center;verticalAlign=middle;resizable=0;points=[];" vertex="1" connectable="0" parent="zXZC7gDi-qFupmcMp6eT-89">
          <mxGeometry x="-0.7259" relative="1" as="geometry">
            <mxPoint as="offset" />
          </mxGeometry>
        </mxCell>
        <mxCell id="zXZC7gDi-qFupmcMp6eT-104" value="" style="edgeStyle=orthogonalEdgeStyle;rounded=0;orthogonalLoop=1;jettySize=auto;html=1;" edge="1" parent="1" source="zXZC7gDi-qFupmcMp6eT-78" target="zXZC7gDi-qFupmcMp6eT-80">
          <mxGeometry relative="1" as="geometry" />
        </mxCell>
        <mxCell id="zXZC7gDi-qFupmcMp6eT-105" value="YES" style="edgeLabel;html=1;align=center;verticalAlign=middle;resizable=0;points=[];" vertex="1" connectable="0" parent="zXZC7gDi-qFupmcMp6eT-104">
          <mxGeometry x="-0.2941" y="-2" relative="1" as="geometry">
            <mxPoint as="offset" />
          </mxGeometry>
        </mxCell>
        <mxCell id="zXZC7gDi-qFupmcMp6eT-78" value="Does the quiz at least one question that is linked to the theme ?" style="strokeWidth=2;html=1;shape=mxgraph.flowchart.decision;whiteSpace=wrap;" vertex="1" parent="1">
          <mxGeometry x="-427.5" y="990" width="186.25" height="110" as="geometry" />
        </mxCell>
        <mxCell id="zXZC7gDi-qFupmcMp6eT-79" value="End" style="strokeWidth=2;html=1;shape=mxgraph.flowchart.terminator;whiteSpace=wrap;" vertex="1" parent="1">
          <mxGeometry x="-385" y="1230" width="100" height="60" as="geometry" />
        </mxCell>
        <mxCell id="zXZC7gDi-qFupmcMp6eT-86" value="" style="edgeStyle=orthogonalEdgeStyle;rounded=0;orthogonalLoop=1;jettySize=auto;html=1;" edge="1" parent="1" source="zXZC7gDi-qFupmcMp6eT-80" target="zXZC7gDi-qFupmcMp6eT-79">
          <mxGeometry relative="1" as="geometry" />
        </mxCell>
        <mxCell id="zXZC7gDi-qFupmcMp6eT-80" value="The user saves the quiz as an online quiz and it is uploaded to the site and saved in the database" style="rounded=1;whiteSpace=wrap;html=1;absoluteArcSize=1;arcSize=14;strokeWidth=2;" vertex="1" parent="1">
          <mxGeometry x="-412.5" y="1130" width="155" height="60" as="geometry" />
        </mxCell>
        <mxCell id="zXZC7gDi-qFupmcMp6eT-91" value="" style="edgeStyle=orthogonalEdgeStyle;rounded=0;orthogonalLoop=1;jettySize=auto;html=1;" edge="1" parent="1" source="zXZC7gDi-qFupmcMp6eT-88" target="zXZC7gDi-qFupmcMp6eT-90">
          <mxGeometry relative="1" as="geometry" />
        </mxCell>
        <mxCell id="zXZC7gDi-qFupmcMp6eT-103" value="YES" style="edgeLabel;html=1;align=center;verticalAlign=middle;resizable=0;points=[];" vertex="1" connectable="0" parent="zXZC7gDi-qFupmcMp6eT-91">
          <mxGeometry x="0.3436" y="-3" relative="1" as="geometry">
            <mxPoint x="9" y="3" as="offset" />
          </mxGeometry>
        </mxCell>
        <mxCell id="zXZC7gDi-qFupmcMp6eT-110" value="" style="edgeStyle=orthogonalEdgeStyle;rounded=0;orthogonalLoop=1;jettySize=auto;html=1;" edge="1" parent="1" source="zXZC7gDi-qFupmcMp6eT-88" target="zXZC7gDi-qFupmcMp6eT-109">
          <mxGeometry relative="1" as="geometry" />
        </mxCell>
        <mxCell id="zXZC7gDi-qFupmcMp6eT-113" value="NO" style="edgeLabel;html=1;align=center;verticalAlign=middle;resizable=0;points=[];" vertex="1" connectable="0" parent="zXZC7gDi-qFupmcMp6eT-110">
          <mxGeometry x="0.3957" y="-2" relative="1" as="geometry">
            <mxPoint as="offset" />
          </mxGeometry>
        </mxCell>
        <mxCell id="zXZC7gDi-qFupmcMp6eT-88" value="User is asked whether he would like to save their quiz offline" style="strokeWidth=2;html=1;shape=mxgraph.flowchart.decision;whiteSpace=wrap;" vertex="1" parent="1">
          <mxGeometry x="-627.5" y="990" width="170" height="110" as="geometry" />
        </mxCell>
        <mxCell id="zXZC7gDi-qFupmcMp6eT-90" value="The quiz is saved as an offline quiz in the database and the user is free to edit it later" style="rounded=1;whiteSpace=wrap;html=1;absoluteArcSize=1;arcSize=14;strokeWidth=2;" vertex="1" parent="1">
          <mxGeometry x="-823.75" y="1015" width="155" height="60" as="geometry" />
        </mxCell>
        <mxCell id="zXZC7gDi-qFupmcMp6eT-92" value="End" style="strokeWidth=2;html=1;shape=mxgraph.flowchart.terminator;whiteSpace=wrap;" vertex="1" parent="1">
          <mxGeometry x="-796.25" y="1130" width="100" height="60" as="geometry" />
        </mxCell>
        <mxCell id="zXZC7gDi-qFupmcMp6eT-93" style="edgeStyle=orthogonalEdgeStyle;rounded=0;orthogonalLoop=1;jettySize=auto;html=1;entryX=0.5;entryY=0;entryDx=0;entryDy=0;entryPerimeter=0;" edge="1" parent="1" source="zXZC7gDi-qFupmcMp6eT-90" target="zXZC7gDi-qFupmcMp6eT-92">
          <mxGeometry relative="1" as="geometry" />
        </mxCell>
        <mxCell id="zXZC7gDi-qFupmcMp6eT-96" value="" style="edgeStyle=orthogonalEdgeStyle;rounded=0;orthogonalLoop=1;jettySize=auto;html=1;" edge="1" parent="1" source="zXZC7gDi-qFupmcMp6eT-94" target="zXZC7gDi-qFupmcMp6eT-70">
          <mxGeometry relative="1" as="geometry" />
        </mxCell>
        <mxCell id="zXZC7gDi-qFupmcMp6eT-97" value="No" style="edgeLabel;html=1;align=center;verticalAlign=middle;resizable=0;points=[];" vertex="1" connectable="0" parent="zXZC7gDi-qFupmcMp6eT-96">
          <mxGeometry x="-0.313" relative="1" as="geometry">
            <mxPoint as="offset" />
          </mxGeometry>
        </mxCell>
        <mxCell id="zXZC7gDi-qFupmcMp6eT-99" value="" style="edgeStyle=orthogonalEdgeStyle;rounded=0;orthogonalLoop=1;jettySize=auto;html=1;" edge="1" parent="1" source="zXZC7gDi-qFupmcMp6eT-94" target="zXZC7gDi-qFupmcMp6eT-98">
          <mxGeometry relative="1" as="geometry" />
        </mxCell>
        <mxCell id="zXZC7gDi-qFupmcMp6eT-102" value="YES" style="edgeLabel;html=1;align=center;verticalAlign=middle;resizable=0;points=[];" vertex="1" connectable="0" parent="zXZC7gDi-qFupmcMp6eT-99">
          <mxGeometry x="0.2894" relative="1" as="geometry">
            <mxPoint as="offset" />
          </mxGeometry>
        </mxCell>
        <mxCell id="zXZC7gDi-qFupmcMp6eT-94" value="Does the user have an existing offline quiz" style="strokeWidth=2;html=1;shape=mxgraph.flowchart.decision;whiteSpace=wrap;" vertex="1" parent="1">
          <mxGeometry x="-633.75" y="640" width="196.25" height="110" as="geometry" />
        </mxCell>
        <mxCell id="zXZC7gDi-qFupmcMp6eT-100" style="edgeStyle=orthogonalEdgeStyle;rounded=0;orthogonalLoop=1;jettySize=auto;html=1;entryX=0;entryY=0.5;entryDx=0;entryDy=0;exitX=0.5;exitY=1;exitDx=0;exitDy=0;" edge="1" parent="1" source="zXZC7gDi-qFupmcMp6eT-98" target="zXZC7gDi-qFupmcMp6eT-73">
          <mxGeometry relative="1" as="geometry">
            <mxPoint x="-725" y="940" as="targetPoint" />
            <Array as="points">
              <mxPoint x="-753.75" y="725" />
              <mxPoint x="-753.75" y="925" />
            </Array>
          </mxGeometry>
        </mxCell>
        <mxCell id="zXZC7gDi-qFupmcMp6eT-98" value="User selects one of his &#39;offline&#39; quizes" style="rounded=1;whiteSpace=wrap;html=1;absoluteArcSize=1;arcSize=14;strokeWidth=2;" vertex="1" parent="1">
          <mxGeometry x="-830" y="665" width="155" height="60" as="geometry" />
        </mxCell>
        <mxCell id="zXZC7gDi-qFupmcMp6eT-112" value="" style="edgeStyle=orthogonalEdgeStyle;rounded=0;orthogonalLoop=1;jettySize=auto;html=1;" edge="1" parent="1" source="zXZC7gDi-qFupmcMp6eT-109" target="zXZC7gDi-qFupmcMp6eT-111">
          <mxGeometry relative="1" as="geometry" />
        </mxCell>
        <mxCell id="zXZC7gDi-qFupmcMp6eT-109" value="The quiz isn&#39;t saved or uploaded" style="rounded=1;whiteSpace=wrap;html=1;absoluteArcSize=1;arcSize=14;strokeWidth=2;" vertex="1" parent="1">
          <mxGeometry x="-620" y="1130" width="155" height="60" as="geometry" />
        </mxCell>
        <mxCell id="zXZC7gDi-qFupmcMp6eT-111" value="End" style="strokeWidth=2;html=1;shape=mxgraph.flowchart.terminator;whiteSpace=wrap;" vertex="1" parent="1">
          <mxGeometry x="-592.5" y="1230" width="100" height="60" as="geometry" />
        </mxCell>
      </root>
    </mxGraphModel>
  </diagram>
</mxfile>
